<svg xmlns="http://www.w3.org/2000/svg" version="1.1" xmlns:xlink="http://www.w3.org/1999/xlink" width="1500" height="1500" viewBox="0 0 1500 1500"><rect width="1500" height="1500" x="0" y="0" id="background" stroke="transparent" fill="#ffffff"></rect><svg xml:space="preserve" width="1000" height="1000" data-version="2" data-id="lg_s7zwpZIz79zfcx9ya0" viewBox="0 0 565 94" x="250" y="250"><rect width="100%" height="100%" fill="transparent"></rect><path fill="#494949" d="M54.355 43.11v7.04q2.56.25 8.96.25 12.03 0 21.5-.76l3.08-.26v38.27Q75.475 92 52.625 92t-34.94-11.64q-12.1-11.65-12.1-34.63 0-22.97 11.91-33.85Q29.395 1 52.945 1q9.86 0 18.63 1.15 8.76 1.15 12.48 2.3l3.84 1.15v39.43q-11.14-1.92-33.54-1.92"></path><rect width="82.31" height="91" x="-41.16" y="-45.5" fill="none" rx="0" ry="0" transform="translate(47.24 47)"></rect><path fill="#494949" d="M144.725 42.21V2.28h42.11v88.44h-42.11V60.9h-7.43v29.82h-41.98V2.28h41.98v39.93Z"></path><rect width="91.52" height="88.44" x="-45.76" y="-44.22" fill="none" rx="0" ry="0" transform="translate(141.57 47)"></rect><path fill="#494949" d="M194.135 90.72V2.28h44.03v88.44Z"></path><rect width="44.03" height="88.44" x="-22.02" y="-44.22" fill="none" rx="0" ry="0" transform="translate(216.65 47)"></rect><path fill="#494949" d="M294.355 43.11v7.04q2.56.25 8.96.25 12.03 0 21.5-.76l3.08-.26v38.27Q315.475 92 292.625 92t-34.94-11.64q-12.1-11.65-12.1-34.63 0-22.97 11.91-33.85Q269.395 1 292.945 1q9.86 0 18.63 1.15 8.76 1.15 12.48 2.3l3.84 1.15v39.43q-11.14-1.92-33.54-1.92"></path><rect width="82.31" height="91" x="-41.16" y="-45.5" fill="none" rx="0" ry="0" transform="translate(287.24 47)"></rect><path fill="#494949" d="M335.315 90.72V2.28h44.03v88.44Z"></path><rect width="44.03" height="88.44" x="-22.02" y="-44.22" fill="none" rx="0" ry="0" transform="translate(357.83 47)"></rect><path fill="#494949" d="M384.855 2.28h71.8v37.24h-27.64v5.12h27.64v17.92h-27.64v28.16h-44.16Z"></path><rect width="71.8" height="88.44" x="-35.9" y="-44.22" fill="none" rx="0" ry="0" transform="translate(421.25 47)"></rect><path fill="#494949" d="M533.335 90.72h-48V69.86q-3.59-1.54-5-2.18-1.4-.64-4.54-2.68-3.14-2.05-4.67-4.23-4.23-5.76-5.38-14.21l-5.5-44.28h45.31l3.2 43.77h2.82l2.68-43.77h44.16l-5.5 44.28q-1.15 8.45-5.38 14.21-1.53 2.18-4.67 4.23-3.13 2.04-4.54 2.68-1.41.64-4.99 2.18Z"></path><rect width="98.17" height="88.44" x="-49.09" y="-44.22" fill="none" rx="0" ry="0" transform="translate(509.83 47)"></rect></svg></svg>