<svg xmlns="http://www.w3.org/2000/svg" version="1.1" xmlns:xlink="http://www.w3.org/1999/xlink" width="1500" height="267" viewBox="0 0 1500 267"><svg xml:space="preserve" width="1500" height="267" data-version="2" data-id="lg_ftdQkNpO8d7ESgJMsj" viewBox="0 0 571 267" x="0" y="0"><rect width="100%" height="100%" fill="transparent"></rect><path fill="#111" d="M186.713 199.88H11.18c-1.303 0-2.626-.013-3.908.151-1.2.158-1.59-.439-1.707-1.426-.062-.555-.041-1.117-.041-1.68V7.892C5.516 2.77 5.516 2.79 10.555 2.79l272.046.014h263.82c5.669 0 11.339-.014 17.009-.103 1.453-.02 2.057.473 2.05 1.92q-.055 48.8-.076 97.595v94.798c0 3.016-.013 2.955-2.934 2.934q-11.875-.069-23.742-.062H384.193l-.116.425q.823.508 1.645 1.036c9.208 6.129 16.105 14.048 19.156 24.907.953 3.38.74 3.826-2.406 5.376-7.92 3.88-16.229 4.45-24.785 2.859-.35-.07-.706-.103-.555-.083-.789 2.119-1.269 4.169-2.297 5.883-.596.994-1.995 1.72-3.181 2.09a5.759 5.759 0 0 1-6.767-2.666c-1.577-2.722-.967-5.739 1.844-8.714l-7.973-4.84c.301 1.048.637 1.926.802 2.838.836 4.703 1.7 9.4 2.393 14.13.288 1.968-.645 2.955-2.626 3.394-14.22 3.188-27.424.274-39.943-6.692a67.189 67.189 0 0 1-14.281-10.757q-.316-.288-.68-.569c-.349 3.428-.458 6.78-1.055 10.044-1.618 8.776-4.943 16.79-12.04 22.584-5.216 4.257-6.45 4.175-11.723.034-5.375-4.223-8.371-10.099-10.551-16.434-.22-.637-.418-1.275-.727-2.221-2.461 4.32-5.834 6.431-10.579 4.813-3.16-1.076-4.059-3.538-3.688-8.885-1.954 1.049-3.826 2.118-5.752 3.078-10.051 5.005-20.616 7.281-31.847 5.869a59.647 59.647 0 0 1-4.778-.857c-2.174-.446-2.818-1.433-2.736-3.696.206-5.642 1.337-11.093 3.387-16.845-.87.555-1.399.878-1.913 1.227-8.07 5.471-16.968 8.296-26.731 8.09-5.608-.116-10.984-1.357-15.968-4.038-2.242-1.206-2.516-1.714-1.858-4.353 1.79-7.206 5.505-13.363 10.757-18.498 3.092-3.023 6.616-5.608 10.1-8.515Zm364.15-182.39H20.126v166.718h177.66c-.192-.309-.233-.453-.323-.5q-.246-.138-.527-.186c-3.449-.596-5.903-2.365-6.562-5.951-.685-3.723.953-6.568 3.86-8.707 4.457-3.284 9.194-2.62 13.342 1.522 3.613-2.215 7-4.703 10.73-6.465 3.716-1.749 7.781-2.763 11.525-4.045-.748-2.304-1.749-4.731-2.29-7.268-.562-2.632.082-3.339 2.584-4.024a45.935 45.935 0 0 1 19.245-1.2c17.318 2.729 29.097 12.361 35.274 28.795l.81 2.208c.678-1.817 1.172-3.264 1.754-4.676.618-1.488 1.317-2.934 1.975-4.38-4.312-4.04-5.142-8.722-1.837-11.985a9.187 9.187 0 0 1 4.696-2.29c2.502-.425 4.45 1.11 6.02 3.037.308-.233.507-.37.692-.528 12.286-10.181 26.245-12.738 41.554-9.063 3.195.767 3.805 1.714 2.948 4.922-.603 2.263-1.535 4.43-2.379 6.822 10.819 1.666 19.718 6.89 26.841 15.412 1.53-4.826 4.333-7.233 8.564-7.603 3.77-.336 7.65 1.632 9.173 4.895 2.249 4.82.315 8.447-3.737 11.299h169.145zM561.66 5.527H9.259c2.023 2.193 3.764 3.681 6.966 3.681 90.678-.11 181.355-.089 272.026-.089 88.805 0 177.611-.02 266.417.09 3.202 0 4.957-1.475 6.986-3.682Zm-6.726 6.28H15.8c2.297 1.878 4.148 3.29 7.199 3.29q262.022-.13 524.052-.013c3.181 0 5.67-.761 7.891-3.277ZM207.33 194.498l.151-.596c-.754-.26-1.495-.727-2.256-.754-3.05-.103-6.101-.09-9.152-.09H14.744c-2.687 0-3.38-.644-3.38-3.016.007-59.071 0-118.143.062-177.214 0-2.543-1.495-3.49-3.318-4.737v189.184c.905.062 1.762.165 2.612.165h180.018c.864 0 1.782-.028 2.57-.316 4.526-1.659 9.153-2.756 14.021-2.632ZM562.82 8.125c-2.426 1.337-3.338 2.996-3.331 5.67.082 58.077.061 116.147.061 174.225 0 .87-.034 1.748.035 2.619.096 1.213-.515 1.92-1.591 2.18-.768.192-1.59.233-2.386.233-63.308.027-126.616.041-189.925.103-.747 0-1.501.569-2.249.877l.186.48c4.806-.123 9.379.919 13.849 2.585.795.295 1.707.356 2.57.356q90.198.021 180.396 0c.788 0 1.57-.11 2.4-.171V8.125ZM14.08 13.822V190.55h188.568c-1.975-2.715-4.423-3.736-7.905-3.73-56.775.117-113.556.083-170.338.083-1.68 0-3.366-.02-5.046 0-1.522.02-2.009-.7-2.009-2.2.035-55.219.007-110.444.117-165.662 0-2.777-1.015-4.224-3.394-5.218Zm354.222 176.645h188.554V13.81c-2.619 1-3.414 2.708-3.4 5.457.116 24.743.068 49.487.068 74.23q-.007 45.62.041 91.246c0 1.543-.569 2.18-2.057 2.167-1.68-.02-3.366 0-5.046 0-56.781 0-113.556.034-170.337-.09-3.449-.006-5.848 1.057-7.836 3.655ZM341.7 200.881c1.597-.432 3.037-.781 4.456-1.206 2.75-.83 2.9-1.022 2.263-3.942-1.666-7.638-6.28-12.821-13.445-15.735a13.232 13.232 0 0 0-7.973-.83c8.44 4.964 13.89 11.621 14.706 21.713Zm-97.712-21.918c-8.248-.384-14.013 3.126-18.367 9.31-1.96 2.784-3.236 5.883-3.263 9.352 0 .514.445 1.33.877 1.488 1.906.699 3.887 1.213 5.848 1.789 2.86-12.272 3.545-13.294 14.912-21.94Zm-1.933-16.605c-2.228 0-3.901-.021-5.567 0-1.426.02-2.873-.007-4.278.185-.94.13-2.016.39-2.708.973-2.722 2.263-4.032 8.378-2.544 11.573.274.59.994 1.385 1.508 1.378 3.024-.027 6.047-.267 9.174-.439-.549-5.039 1.357-9.269 4.422-13.677Zm91.24 13.698c2.756.137 5.423.15 8.055.452 1.673.192 2.496-.445 2.832-1.92.87-3.846.24-7.41-2.215-10.55-.432-.55-1.145-1.173-1.769-1.221-3.613-.268-7.233-.377-11.394-.562 3.14 4.504 5.039 8.741 4.49 13.8m-15.59 3.792-.15.549c8.473 4.874 13.985 11.648 14.047 22.049l7.46-.96c-.13-1.406-.097-2.66-.385-3.84-2.118-8.72-7.726-14.301-15.995-17.304-1.515-.549-3.311-.35-4.977-.5Zm-78.378 22.604c.124-10.496 5.629-17.201 14.076-22.076-9.01-2.708-22.536 10.689-21.281 21.137zm77.398 32.793 6.108 3.592c4.566-7.336 6.644-14.822 3.805-23.009-.5-1.446-2.283-2.447-3.476-3.66l-.466.335c1.474 8.433-1.94 15.577-5.978 22.742Zm-62.534-.014c-4.086-7.199-7.439-14.39-5.972-22.879-3.524 1.372-4.806 4.039-4.915 7.254-.096 2.948-.158 5.972.39 8.844.7 3.675 1.852 7.309 4.649 10.25l5.848-3.476Zm74.586-32.936c.048-.542.117-.967.124-1.392.212-8.255-8.152-18.175-16.413-19.348-1.125-.157-2.318.2-3.483.316 8.008 4.607 13.26 10.572 12.368 20.424zm-66.948-20.24c-5.245-1.405-9.174 1.324-12.739 4.526-4.6 4.134-7.514 9.166-6.98 15.68h7.467c-.87-9.86 4.36-15.776 12.258-20.205Zm52.75 51.688c.802-1.392 1.57-2.578 2.194-3.84 2.44-4.95 4.353-9.988 3.866-15.72-.294-3.47-1.844-5.629-5.19-6.726 1.152 8.22-1.035 15.515-6.04 22.173zm-53.059-4.12c-5.053-6.685-7.178-13.986-6.06-22.18-3.525 1.132-4.985 3.483-5.184 6.987a24.682 24.682 0 0 0 2.276 11.964c1.138 2.447 2.38 4.84 3.668 7.445zm68.183-12.012c1.59 8.104-.315 15.405-4.525 22.399l7.363 2.88c.556-1.317 1.07-2.428 1.495-3.573 1.803-4.82 1.488-9.729.747-14.7-.48-3.208-2.07-5.477-5.08-7.013Zm-88.484.02c-3.496 2.016-4.58 3.566-5.066 7.234-.26 1.967-.617 3.942-.658 5.916a24.682 24.682 0 0 0 2.968 12.101l7.26-2.9c-4.174-7.041-6.067-14.24-4.504-22.35m135.88-35c3.763-.014 6.732-2.695 6.712-6.068-.014-3.332-3.065-5.985-6.836-5.944-3.627.041-6.61 2.736-6.616 5.992-.014 3.366 2.969 6.027 6.74 6.02m-113.666 45.29 5.121-5.464c-4.915-5.34-7.528-11.346-7.11-18.484-2.564.563-3.722 2.002-3.688 4.381.034 2.407-.164 4.848.144 7.22.59 4.511 2.598 8.453 5.54 12.354Zm46.004-23.906c.473 7.246-2.256 13.17-7.083 18.47l5.184 5.423c4.27-5.869 6.424-11.943 5.752-18.916-.24-2.461-.768-4.525-3.853-4.977m41.746 12.519-6.932-8.132c-3.565 3.47-7.966 5.602-13.15 6.52 5.108 5.636 10.99 6.157 20.075 1.612Zm-111.37-1.577c-5.484-1.118-8.761-2.702-13.245-6.5l-6.78 8.09c9.036 4.566 14.863 4.011 20.026-1.583Zm95.176 28.644c2.132.398 4.018.782 5.91 1.097 2.187.363 2.454.103 2.859-2.112.679-3.695.35-7.335-.686-10.894-.967-3.311-2.756-6.095-6.225-8.104 1.543 7 1.261 13.486-1.858 20.013m-100.975-19.718-.789-.35c-1.385 1.763-3.05 3.374-4.106 5.32-2.537 4.677-2.846 9.723-1.618 14.851.116.48.781 1.24 1.097 1.2 2.413-.336 4.799-.844 7.342-1.33-3.14-6.54-3.387-13.034-1.926-19.698Zm105.198-44.845c6.96 4.539 11.278 10.449 12.08 18.827l5.465-2.66c.164-11.155-9.496-16.832-17.538-16.167Zm-119.555 18.854c.775-8.515 5.238-14.377 12.087-18.922-8.871-.391-17.715 5.498-17.524 16.269zm39.175 2.825c-.445-7.857 3.902-12.69 9.606-16.838-4.614-.508-8.125 1.796-11.237 4.703-3.792 3.53-5.924 7.816-4.943 13.376zm53.278.014 6.802 1.227c0-1.509.157-2.695-.028-3.826-1.158-6.986-7.04-13.006-14.089-14.445-.747-.151-1.556-.021-2.338-.021 5.814 4.402 10.079 9.27 9.647 17.065Zm10.092-23.736c2.325-.274 4.519-.651 6.726-.754 1.53-.069 1.92-.823 1.886-2.112-.11-4.113-1.838-7.541-4.505-10.565-.178-.199-.541-.418-.76-.37-2.188.487-4.368 1.028-6.74 1.604 2.708 3.874 3.42 7.85 3.4 12.197Zm-70.13-12.217c-2.296-.562-4.374-1.09-6.465-1.557a1.166 1.166 0 0 0-.953.316c-2.749 3.12-4.6 6.643-4.477 10.921.014.563.487 1.53.871 1.591 2.523.418 5.08.638 7.747.932-.185-4.483.761-8.398 3.284-12.203Zm-27.341 11.99c-1.653-4.394-.912-8.57.747-12.895-2.838.973-5.512 2.173-8.213 3.325a4.045 4.045 0 0 0-2.585 3.38c-.165 1.878-.048 3.812.22 5.69.205 1.454 1.295 1.947 2.783 1.666 2.249-.425 4.518-.754 7.04-1.165Zm120.926-13.135-.377.555c1.906 4.08 2.495 8.262.94 12.58 2.502.42 4.826.79 7.136 1.194 1.399.247 2.42-.26 2.647-1.632.28-1.693.548-3.462.342-5.135-.144-1.186-.788-2.777-1.72-3.312-2.86-1.638-5.965-2.858-8.968-4.243Zm-137.319 62.02c-2.057-6.027-1.275-11.471 1.9-16.702-7.577 1.858-12.328 13.362-8.276 20.163zm152.306-16.709c3.318 5.361 3.942 10.826 1.968 16.722l6.355 3.448c4.052-6.794-.706-18.305-8.316-20.17Zm-161.774-27.87c.206-.171.898-.555 1.35-1.124 1.46-1.851 2.777-3.812 4.244-5.65 1.392-1.74 1.358-2.467-.452-3.825-2.784-2.084-7.583-1.104-9.941 2.07-1.269 1.7-1.803 3.607-.885 5.602.953 2.07 2.777 2.9 5.69 2.927Zm11.628 42.905c1.433-1.138 2.982-1.981 3.97-3.256 1.179-1.53 2.625-3.449 2.598-5.177-.048-3.277-.11-6.39 1.79-9.296-6.727.651-11.204 10.071-8.358 17.736Zm141.453-17.853c2.015 2.928 2.262 5.958 1.837 9.126-.048.35-.082.767.055 1.062 1.501 3.1 3.394 5.869 6.589 7.48 3.016-6.945-1.31-16.324-8.488-17.66Zm-47.581-4.257c-.446 5.58-3.181 9.776-7.63 13.095l4.044 5.546c4.265-4.95 6.897-10.092 6.274-16.51-.151-1.57-1.125-2.07-2.688-2.138Zm-37.818.048c-1.803-.124-2.578.781-2.742 2.488-.405 4.148.816 7.892 2.88 11.388.952 1.611 2.145 3.079 3.42 4.875l4.046-5.739c-4.532-3.366-7.144-7.562-7.604-13.005Zm111.294-2.05c-1.09 5.395-5.115 7.315-9.345 9.338 2.386.795 4.806 1.823 7.117 1.618 3.668-.33 6.41-2.75 8.57-5.698.555-.76.678-1.426-.343-1.96-1.913-1.008-3.792-2.078-6.006-3.291Zm-184.756 0c-2.221 1.22-4.21 2.228-6.074 3.414-.343.22-.535 1.405-.281 1.748 3.565 4.73 8.878 8.385 15.7 3.84-4.237-1.673-8.234-3.565-9.345-8.995Zm131.018 9.598-.26.686c1.769.768 3.496 2.07 5.313 2.2 4.964.357 9.126-1.782 12.663-5.19.069-.061.035-.233.069-.5-1.042-.658-2.07-1.79-3.236-1.954-1.817-.254-4.333-.569-5.478.405a19.197 19.197 0 0 1-9.07 4.353m-95.08-2.516c4.327 5.917 14.22 7.363 17.833 2.53-3.428-.672-6.63-1.735-8.988-4.477-.137-.158-.425-.199-.658-.254-3.072-.72-5.917-.548-8.193 2.208Zm-14.24 19.533c4.916 2.482 13.555.04 16.037-4.011l-12.547-3.209zm125.232-3.99c3.846 4.387 11.306 6.403 16.112 3.99l-3.483-7.22zm-52.949 4.14c-.555 2.25.028 3.97 1.66 5.444 3.153 2.845 6.93 4.292 11.024 5.053.384.069.809-.075 1.357-.137l.48-5.787a29 29 0 0 1-14.528-4.572Zm-3.153.268c-2.345.987-4.621 2.125-7.007 2.886-2.386.761-4.91 1.145-7.597 1.742l.563 5.759c4.847-.638 8.98-2.167 12.457-5.355a4.868 4.868 0 0 0 1.584-5.032m22.144-59.209c7.487-2.632 7.926-8.933 5.808-15.261-1.94 1.008-3.86 1.975-5.732 3.017-.26.144-.5.76-.411 1.056 1.11 3.654.918 7.342.342 11.188Zm-47.06-15.295c-2.598 8-.164 13.684 5.822 15.083-.528-3.647-.727-7.274.342-10.874.103-.35-.26-1.083-.61-1.289-1.762-1.014-3.6-1.906-5.553-2.92m118.91 63.918c.583 2.564 1.399 5.122 1.687 7.734.295 2.674.062 5.402.062 8.289l5.964.439c.768-7.234-2.598-14.144-7.72-16.462Zm-186.339 15.947c-.685-5.608-.672-10.942 1.872-16.125-5.547 2.4-9.324 10.305-8.015 16.667zm119.212-64.028c2.53 4.779 2.599 5.17 1.81 10.23 1.982-.35 3.922-.659 5.842-1.07.39-.083.966-.542 1-.871.323-3.627-.294-7.048-2.735-9.9-.288-.336-1.138-.507-1.577-.343-1.44.535-2.818 1.248-4.333 1.954ZM201.214 212.53c-6.527 2.132-8.872 11.079-6.987 19.162l5.074-1.55c-2.249-6.28-1.015-11.95 1.913-17.612m168.554.116c2.887 5.547 4.1 11.265 1.858 17.517l5.15 1.53c1.905-9.455-1.365-17.641-7.008-19.04Zm-111.266-34.15c-1.316-3.811-.48-7.068 1.721-10.194-1.275-.61-2.434-1.05-3.476-1.687-1.625-.987-2.674-.363-3.462 1.07a14.192 14.192 0 0 0-1.844 8.247c.048.556.822 1.344 1.398 1.502 1.728.473 3.524.685 5.657 1.063Zm7.528 61.314c-.007-2.407-1.714-4.052-4.175-4.032-2.934.021-5.505 2.592-5.499 5.492a4.004 4.004 0 0 0 4.162 4.093c2.852-.041 5.526-2.729 5.512-5.553m-17.236-90.102c-1.357 4.43 3.483 14.425 7.768 13.698-2.057-3.853-.466-7.795-.267-11.97zm73.373-.048-7.562 1.817c.295 4.264 1.762 8.166-.329 12.115 4.881-1.084 8.844-8.084 7.891-13.925Zm-26.8 63.055c3.312-1.954 5.094-4.854 6.198-8.214 1.207-3.654.494-4.806-3.394-5.724-1.179 3.297-2.228 6.705-5.498 8.871l2.701 5.067Zm-19.834.055 2.715-5.15c-3.373-2.145-4.292-5.703-5.588-8.98-3.867 1.508-4.203 1.789-3.6 4.641a14.398 14.398 0 0 0 6.473 9.482Zm93.646-15.344c-1.193 4.326-4.066 6.959-8.077 8.748 6.02 2.606 13.802-1.59 14.281-7.432zm-173.724 1.344c.98 6.17 9.646 10.606 13.89 7.39-1.556-1.13-3.36-2.097-4.676-3.51s-2.139-3.277-3.318-5.162l-5.89 1.282Zm103.91 45.311 1.158-4.388a26.053 26.053 0 0 1-13.472-5.8c-.754 2.955.274 4.936 2.51 6.63 2.858 2.173 6.197 2.708 9.81 3.551Zm-15.502-10.243c-3.929 3.34-8.399 5.142-13.465 5.903.322 1.214.52 2.31.925 3.34.144.37.837.836 1.172.767 3.34-.72 6.65-1.433 9.427-3.75 2.044-1.707 2.53-3.64 1.948-6.253Zm3.352-13.52-.507.336c.254 1.035.165 2.455.823 3.037 3.9 3.504 8.659 4.793 14.027 4.991-.144-1.295-.041-2.42-.439-3.332-.343-.781-1.275-1.906-1.892-1.878-4.347.212-8.42-.405-12.012-3.154m-3.435-.048c-3.434 2.599-7.301 3.517-11.449 3.133-1.639-.15-2.263.775-2.585 2.037-.247.98-.233 2.029-.336 3.05 3.86.357 9.667-1.453 12.855-3.702 1.598-1.124 2.091-2.454 1.509-4.511Zm103.245-14.96c-2.345 3.497-5.21 6.191-9.386 7.583 4.402 2.324 8.879 1.604 11.964-1.673 1.693-1.796 1.666-2.427-.206-3.983-.754-.63-1.529-1.241-2.365-1.927Zm-203.136.014c-.967.782-1.824 1.584-2.79 2.228-1.303.871-1.18 1.776-.392 2.935 2.585 3.791 8.447 4.99 12.437 2.303-4.113-1.254-6.87-4.031-9.262-7.466Zm89.505-19.512c-5.478-1.001-13.699 9.461-11.745 14.096.796-.24 1.598-.549 2.427-.706 1.344-.247 1.858-.926 2.05-2.345.405-3.024 1.865-5.643 3.922-7.884 1.028-1.118 2.208-2.092 3.352-3.161Zm36.007 14.171c1.241-5.916-7.082-15.55-11.895-14.02 4.12 2.996 6.863 6.808 7.494 11.95.04.329.432.754.76.884 1.139.439 2.325.768 3.641 1.186m-38.023-27.773c0-2.578-.706-5.492.178-7.803 1.138-2.968.014-4.291-2.022-5.71q-.898-.631-1.797-1.31c-2.619 5.19-.781 12.162 3.648 14.816Zm31.764-14.898c-1.303 1.096-2.557 2.2-3.86 3.236-.768.61-.713 1.172-.439 2.07a17.826 17.826 0 0 1 .83 4.696c.04 1.666-.33 3.346-.528 5.136 4.826-2.907 6.664-9.894 3.997-15.138m-91.617 13.732a40.45 40.45 0 0 0-9.955 11.69l11.175-3.895zm157.572 11.607c-1.447-3.613-7.227-10.236-9.743-11.34l-1.18 7.535zm23.934 27.89c-1.81 3.278-4.607 4.861-7.857 5.897 3.778 2.982 9.838 2.913 12.43-.192zm-207.147 5.91c-3.428-1.021-6.178-2.68-8.029-5.916l-4.62 5.868c3.366 2.914 8.295 2.928 12.649.048m160.183 28.878c1.022 0 2.304.082 3.565-.048.398-.041 1.077-.665 1.056-.994-.144-2.832.007-5.794-.816-8.433-.52-1.666-2.57-2.86-3.805-4.134zm-121.214-13.383c-1.186 1.145-3.222 2.249-3.778 3.86-.857 2.502-.754 5.348-.925 8.049-.027.452.535 1.316.898 1.364 1.35.165 2.742.069 3.805.069zm80.976-51.557c1.07-.59 2.606-1.029 3.524-2.036 1.858-2.037 1.46-6.13-.541-8.063-.26-.254-.946-.398-1.234-.233-1.55.891-3.03 1.899-4.135 2.598zm-38.359-7.747c-1.097-.7-2.475-1.653-3.935-2.448-.37-.199-1.269-.082-1.495.22-1.488 1.988-2.098 4.188-1.261 6.657.788 2.317 2.66 2.852 4.415 3.03zm86.55 31.146c5.101 2.07 11.217-1.254 12.52-6.602h-6.802c-.802 3.27-2.804 5.204-5.718 6.602m-149.83-6.897c2.042 5.979 8.26 9.187 12.457 6.89q-2.983-1.988-5.28-5.957c-.137-.233-.425-.508-.665-.521-2.077-.165-4.168-.268-6.52-.412Zm155.02-3.092c1.317-.884 2.434-1.536 3.421-2.345.316-.26.487-.953.412-1.405-.789-4.991-4.943-8.885-10.332-9.489 3.997 3.558 6.156 7.81 6.492 13.24ZM218.3 180.505c-5.636.81-9.475 4.402-10.394 9.414-.082.466-.014 1.193.281 1.446 1.022.857 2.18 1.55 3.538 2.482.315-5.464 2.448-9.68 6.568-13.335Zm104.54-20.513c5.958-3.099 8.885-6.897 7.617-10.448h-5.114zm-82.56-10.339c-.541 4.196 2.304 7.823 8.303 10.51-.48-1.103-.974-2.077-1.323-3.105-.378-1.11-.624-2.263-.905-3.408-.336-1.405-.22-3.565-1.07-4.045-1.213-.685-3.12-.15-4.737-.137-.055 0-.103.069-.275.185Zm56.069 13.664c-1.598 2.359-3.024 4.45-4.416 6.548-.157.24-.274.59-.226.864.377 2.4.802 4.785 1.2 7.123 3.716-2.92 5.697-10.373 3.448-14.535Zm-18.333 14.638c.41-2.434.809-4.772 1.193-7.123.034-.227.034-.528-.083-.707-1.467-2.221-2.955-4.422-4.58-6.828-2.145 4.292-.37 11.045 3.47 14.658m17.976-17.956c-1.138-1.885-2.694-2.722-4.402-2.393-1.92.37-3.434 2.146-3.736 4.381-.254 1.838.864 3.792 2.763 4.806zm-110.642 60.01c-3.887 1.29-7.63 7.302-7.363 12.184l4.422.535c.288-2.42.37-4.608.857-6.699.486-2.077 1.385-4.052 2.09-6.02Zm199.86-.116c2.481 4.004 3.112 8.31 3.153 12.903l4.573-.624c.274-4.84-3.476-10.867-7.727-12.279m-15.206 20.239c2.043.02 3.97-1.954 4.017-4.12.048-2.064-1.488-3.545-3.791-3.668-1.666-.09-3.606 2.104-3.62 4.093-.014 2.029 1.501 3.681 3.394 3.695m-157.723-4.703c4.443.541 8.605-1.865 10.627-5.924h-9.112zm144.86-5.93h-9.53c3.14 3.297 5.67 6.965 11.018 5.868zm-72.796 12.285-.535-.377c-3.044 3.23-7.15 3.99-11.724 5.101.919.994 1.57 2.324 2.263 2.345a10.764 10.764 0 0 0 8.926-4.196c.61-.754.727-1.906 1.07-2.873m13.876 4.553c-4.093-.898-8.09-1.845-11.45-4.704.138 1.2.323 2.352.96 3.12a11.655 11.655 0 0 0 7.46 4.086c2.057.309 2.845-.411 3.023-2.502Zm-11.216-30.955c-.151 3.16 6.424 6.719 10.935 5.245-1.152-1.166-2.022-2.681-3.298-3.195-2.406-.98-5.052-1.392-7.637-2.05m-13.78 5.546c3.653.37 7.219-.644 9.59-2.94.728-.7.995-1.88 1.578-3.059-2.407.864-4.278 2.002-6.205 2.105-2.722.144-3.826 1.735-4.964 3.894m129.078 6.363.418-.137-3.407-8.207-6.054 2.057zm-230.704-8.365-3.394 8.276.363.137 9.085-6.342-6.047-2.077Zm121.797-22.741c-.995 1.645-1.989 3.25-2.921 4.882-.178.315-.213.822-.096 1.172.329.987.775 1.933 1.18 2.9 1.61-.83 2.399-1.9 3.516-4.676 1.234-3.058 1.2-3.133-1.686-4.285Zm-15.858.02c-2.832 1.029-2.948 1.228-1.7 4.203a20.568 20.568 0 0 0 1.72 3.27c.391.604 1.035 1.05 1.721 1.708.439-1.07.802-1.796 1.028-2.558.165-.548.384-1.282.158-1.707-.877-1.666-1.92-3.25-2.927-4.915m-2.366 55.65c.22.356.48 1.035.953 1.488.405.39 1.104.83 1.57.733a8.776 8.776 0 0 0 6.123-4.463c.301-.555.267-1.296.329-1.625l-8.968 3.867Zm20.465-.02-8.905-3.902c.082.418 0 1.248.363 1.632 1.303 1.371 2.591 2.88 4.203 3.791 2.728 1.55 3.243 1.193 4.34-1.522m-2.386-64.186c.569.494 1.117.823 1.474 1.296 1.33 1.769 2.81 3.476 3.825 5.423 1.022 1.975 1.166 2.372 3.634 2.825-.644-4.772-5.073-9.612-8.927-9.537Zm-24.456 9.729c1.762-.549 3.079-1.207 3.73-3.29.542-1.742 2.043-3.203 3.209-4.718.48-.63 1.186-1.09 1.967-1.782-4.127.178-8.625 5.258-8.906 9.79m-93.639 34.163 2.112-7.198-7.37 5.286 5.265 1.92Zm220.62.021 5.25-1.995-7.349-5.19zm-97.569-54.855 1.94 5.08c1.379 0 2.147-.857 2.42-2.09.433-1.961-.246-3.614-1.747-5.08zm-25.504-.007-2.687-2.153c-1.378 1.687-2.297 3.394-1.53 5.39.33.85 1.345 1.44 2.147 2.255zm71.289 27.801 7.528 6.973c.253-3.408-2.941-6.637-7.528-6.973m-124.587 7.014 7.61-7.048c-4.834.555-7.604 3.339-7.61 7.048M340.76 153.28l-.384-.425-6.945 3.106 5.375 2.393zm-110.176-.418-.446.46 2.023 5.025 5.32-2.414-6.897-3.078Zm88.086 53.278c3.565 2.009 6.821.884 10.544-.98-2.468-.13-4.415-.192-6.355-.357-1.557-.13-3.086-.35-4.19 1.33Zm-66.25-.185c-.788-.439-1.488-1.173-2.2-1.173-2.668-.006-5.341.22-8.194.364 3.524 2.372 6.932 2.633 10.387.809Zm31.476 3.921c-3.435-.096-5.622 1.42-6.307 4.765 3.098.096 6.211-2.228 6.307-4.765m9.468 4.813c-.823-3.373-2.948-4.943-6.287-4.813-.082 2.393 2.818 4.67 6.287 4.813m-26.54 13.466-5.087 4.648 5.088 1.913zm96.026-45.1 2.968 6 3.538-3.312zm-154.781 0-6.507 2.688 3.538 3.312zm82.1-8.583-.651-.164-2.722 9.666c3.613-2.427 3.668-5.91 3.38-9.502Zm-8.803-.185-.637.192c-.254 3.592-.206 7.089 3.414 9.468zm65.454 28.007c3.476 1.09 8.7-1.07 9.565-3.846zm-132.58-3.963c1.974 3.305 6.944 5.183 9.645 3.88zm3.468 40.786-4.271 5.17 4.271.754zm135.509 5.93 4.271-.753-4.271-5.17zm-20.445-91.43 5.814-2.627-.061-.363-5.122-.905zm-95.277-3.95-5.17 1.008c1.022.802 1.995 1.2 2.955 1.625.926.411 1.838.843 2.88 1.316zm57.713 44.557c-1.453-3.757-4.566-5.656-6.424-4.12zm-12.95-4.203c-2.174-1.35-5.568.837-6.822 4.375zm6.855 8.776c2.469-3.202 2.14-4.504-1.59-6.177zm-5.71-6.205c-3.73 1.77-4.066 3.12-1.584 6.157zm52.29-32.963c-3.551-1.934-5.965-1.755-7.864.487zm-100.509.014 8.104.459c-2.516-2.228-4.587-2.338-8.104-.46m-23.742 82.396.397.178 3.415-4.203h-3.353zm147.616.137.446-.15-.5-3.998h-3.333zm-80.722 14.644c.857.316 1.529.83 1.926.666 1.783-.727 3.27-1.838 3.757-3.874zm14.37-.137c-1.501-.692-2.427-1.055-3.284-1.535-.83-.473-1.59-1.07-2.633-1.79.658 2.297 2.119 3.449 3.929 4.148.39.15 1.049-.411 1.988-.816Zm3.277-73.366c1.851-.768 1.783-2.605-.062-4.394q-1.042.85.062 4.394m-21.048-4.484c-1.858 2.318-1.83 3.888.26 4.43-.589-1.488 2.16-2.962-.26-4.43m9.153 79.112-2.413 1.686 2.413 1.344v-3.037Zm5.17 1.611-2.352-1.474v2.941zm-5.095-53.182c-2.495-.46-2.598-.377-2.961 1.96zm3.175-.864-.391.59c.329 1.48 1.597 1.563 2.75 1.824l.39-.597zm4.648-20.767 1.159.103.157-2.838-.994-.09zm-14.116.13.644-.082q.823-1.899-1.056-3.01z"></path><path fill="#111" d="M140.09 76.89h-11.35v-3.04q0-9.24-4.29-14.91-4.29-5.68-12.67-5.68-8.38 0-12.67 5.68-4.29 5.67-4.29 14.91v43.17q0 9.37 4.29 15.05 4.29 5.67 12.67 5.67 8.38 0 12.67-5.67 4.29-5.68 4.29-15.05v-2.91h11.35v1.32q0 7.13-2.77 12.61-2.77 5.48-7.26 8.51-8.71 5.81-18.22 5.81-14.38 0-22.9-9.9-8.51-9.9-8.51-24.95V83.49q0-15.05 8.51-24.95 8.52-9.9 22.9-9.9 11.22 0 19.74 7 8.51 6.99 8.51 19.53Z"></path><rect width="59.66" height="93.72" x="-29.83" y="-46.86" fill="none" rx="0" ry="0" transform="translate(110.76 96)"></rect><path fill="#111" d="M218.1 49.96v91.08h-14.38V96.16h-33.53v44.88h-14.26V49.96h14.26v39.87h33.53V49.96Z"></path><rect width="62.17" height="91.08" x="-31.09" y="-45.54" fill="none" rx="0" ry="0" transform="translate(187.51 96)"></rect><path fill="#111" d="M250.97 141.04h-14.39V49.96h14.39Z"></path><rect width="14.39" height="91.08" x="-7.2" y="-45.54" fill="none" rx="0" ry="0" transform="translate(244.27 96)"></rect><path fill="#111" d="M327.8 76.89h-11.36v-3.04q0-9.24-4.29-14.91-4.29-5.68-12.67-5.68-8.38 0-12.67 5.68-4.29 5.67-4.29 14.91v43.17q0 9.37 4.29 15.05 4.29 5.67 12.67 5.67 8.38 0 12.67-5.67 4.29-5.68 4.29-15.05v-2.91h11.36v1.32q0 7.13-2.78 12.61-2.77 5.48-7.26 8.51-8.71 5.81-18.21 5.81-14.39 0-22.9-9.9-8.52-9.9-8.52-24.95V83.49q0-15.05 8.52-24.95 8.51-9.9 22.9-9.9 11.22 0 19.73 7 8.52 6.99 8.52 19.53Z"></path><rect width="59.67" height="93.72" x="-29.84" y="-46.86" fill="none" rx="0" ry="0" transform="translate(298.46 96)"></rect><path fill="#111" d="M358.02 141.04h-14.38V49.96h14.38Z"></path><rect width="14.38" height="91.08" x="-7.19" y="-45.54" fill="none" rx="0" ry="0" transform="translate(351.33 96)"></rect><path fill="#111" d="M421.91 76.89h-10.69v-12.8q0-4.89-2.51-7.86-2.51-2.97-6.66-2.97-4.16 0-6.74 2.97-2.57 2.97-2.57 7.86v25.74h18.88v6.2h-18.88v45.01h-14.26V96.03h-5.28v-6.2h5.28V71.48q0-10.83 6.47-16.83 6.47-6.01 15.45-6.01 8.97 0 15.24 6.4 6.27 6.41 6.27 17.23Z"></path><rect width="48.71" height="92.4" x="-24.36" y="-46.2" fill="none" rx="0" ry="0" transform="translate(398.05 95.34)"></rect><path fill="#111" d="M495.83 59.07q0 12.8-7.46 22.24-7.45 9.44-19.33 11.82v47.91h-14.39V93.26q-11.88-2.51-19.34-11.95-7.46-9.44-7.46-22.24v-9.11h14.39v18.75q0 8.84 5.48 14.71 5.48 5.88 14.12 5.88 8.65 0 14.06-5.81t5.41-14.78V49.96h14.52Z"></path><rect width="67.98" height="91.08" x="-33.99" y="-45.54" fill="none" rx="0" ry="0" transform="translate(462.34 96)"></rect></svg></svg>